<svg xmlns="http://www.w3.org/2000/svg" viewBox="0 0 688.26 788"><defs><style>.cls-1{fill:#fff;}</style></defs><title>logo</title><g id="Layer_2" data-name="Layer 2"><g id="Layer_1-2" data-name="Layer 1"><path class="cls-1" d="M687.84,224v-3.29c-.08-11.31-.08-22.71-7.6-32.25a109.66,109.66,0,0,0-31.57-27.86C564.16,111.7,479.9,62.23,395,14.11,361.29-5.05,325.75-4.55,291.9,14.7c-81.8,46.6-163.19,94-244.74,141-14,8.1-27,17.39-37.48,30.05A38.81,38.81,0,0,0,.39,209.29a184.8,184.8,0,0,0-.17,20.51q4.81,75.73,10,151.54Q17,478.47,23.94,575.77c2,28.53,12.83,50.91,39.42,65.93,76.4,43.14,151.87,88,228.11,131.44,33.26,19,68.63,20.09,101.9,1.44,78.68-44.15,156.35-89.91,234.35-135.16,10-5.74,19.33-12.41,25.07-23,8.27-15.2,10.47-31.66,11.65-48.54,5.15-75.64,10.55-151.2,15.79-226.84q4.05-58.5,8-117.09Zm-16,15.53c-7.18,105-14.1,206.66-21.19,308.31-.76,10.3-1.35,20.68-2.87,31-3.29,22.54-14.27,39.09-34.28,50.57C539.93,671.59,466.9,714.81,393.2,756.68c-32.67,18.57-67.2,18.57-100-.08-73.53-42-146.22-85.18-219.75-127-25.07-14.27-34.28-36.22-36.22-62.89q-5.7-79-11-158-6-87-11.73-173.91a183.07,183.07,0,0,1,.34-19.25,35.36,35.36,0,0,1,8.78-21.7,125.3,125.3,0,0,1,33.18-27.1c79.36-45.84,158.37-92.27,238.07-137.52,31.57-17.9,65.34-17.9,96.92.08,81.21,46.18,161.75,93.45,242.63,140.22a108.89,108.89,0,0,1,30.56,27c4.56,5.74,6.25,12.58,6.67,19.75A177.52,177.52,0,0,1,671.8,239.52Z"/><path class="cls-1" d="M391.77,462.56q-42.55-38.5-85-76.91-43.81-39.51-87.63-79c-3-2.79-3.63-4.56-1.1-8.19q43.05-61,85.69-122.16Q319.29,154,335,131.8c6.84-9.71,11.73-10.22,18.83-.51,17.22,23.81,33.94,48,50.82,72Q491.47,327,578.26,450.66c3.46,4.9,6.92,9.71,10.21,14.69,4.31,6.67,3,13.42-3.38,18.49-3.29,2.11-6.84,2.36-10.72,1.77-24.31-3.46-48.8-5.74-73.19-8.36-20.77-2.19-41.45-4.73-62.13-7.34a77.43,77.43,0,0,0-9.88-.51c-9.62-1.27-19.25-2.11-28.87-3.46C397.26,465.43,394.13,464.92,391.77,462.56Z"/><path class="cls-1" d="M111.66,484.09c-11-3.12-13.51-5.66-14.52-16.63q-5.57-61-11-122.07c-2.7-30.56-5.23-61.21-7.77-91.77a42.78,42.78,0,0,1-.25-4.64c0-4,.84-7.51,4.9-9.37,3.88-1.86,7,.17,9.62,2.53,7.85,6.75,15.45,13.85,23.13,20.77q105.23,95.48,210.55,191a19.35,19.35,0,0,1,1.77,1.94c3.29,3.63,1.69,4.47-2.45,4.9-33.35,3.29-66.44,8.27-99.87,11.4a29.12,29.12,0,0,0-4.56.93c-3,.68-6.16-.17-9.12.84a47.78,47.78,0,0,1-14.69,1.44c-25.58,3.38-51.16,6.25-76.74,9.12C117.82,484.85,114.7,485.18,111.66,484.09Z"/><path class="cls-1" d="M601.47,379.49c-.93,13.25-1.86,26.51-2.87,39.76-.59.08-1.18.25-1.86.34-3.12-4.47-6.16-8.86-9.29-13.34-20.68-30-41.28-60-62.22-89.82-2.7-3.88-2.79-5.91.84-9.2,23.22-21,46.26-42.3,69.31-63.57,3.46-3.21,6.84-6.58,12.16-3.71,5,2.7,4.22,7.18,3.88,11.65-2.11,27.1-4.31,54.11-6.42,81.21C602.91,348.25,602.74,363.87,601.47,379.49Z"/><path class="cls-1" d="M476.61,493.2c7.51.34,9.88,4.14,9.2,11.48-.68,7.68.08,15.45-.25,23.22-.17,4.81.25,5.83,5.66,4.14,18.4-5.83,36.55-5.91,51.24,8.78,10.13,10.13,14.1,23.3,13.17,37.57-.76,11.48-2.45,22.79-10,32.42-10.47,13.42-31.49,18.4-46.77,10.89-4.14-2-7.51-14.86-4.9-18.66,1.1-1.6,2.11-.59,3.29,0,18.91,9.2,34.87.08,36.39-20.85a47.56,47.56,0,0,0-.59-13.85c-3-13.93-13.34-21.7-26.68-20.26-12.83,1.35-21.61,11.65-21.7,25.83-.08,16.55,0,33.09,0,49.64,0,1.44.93,3.38-.68,4.31-2,1.1-3-1.1-4.31-2.19-3.29-3-6.5-6-9.71-8.95-3.55-2.28-5.74-5.07-5.4-9.71,2.11-34.53-.76-69.14,0-103.67C464.88,491.52,464.62,491.52,476.61,493.2Z"/><path class="cls-1" d="M341.2,564.71c4.39-9.88,8.95-19.67,13.25-29.55,1.27-2.87,3.12-3.63,6.25-3.71,17.64-.34,17.48-.51,9.62,15.11-12.16,24.23-24.14,48.63-36.22,72.94-.68,1.35-.68,3.46-2.53,3.55-2.45.08-2.11-2.45-2.79-3.88-7.43-16.72-15.53-33.18-21.95-50.32-.51-1.35-.59-3.38-2.53-3.46s-2.19,1.94-2.62,3.29c-6.25,17.73-15.11,34.28-22.54,51.58-.51,1.18-.68,2.87-2.28,2.87s-1.77-1.6-2.36-2.79q-18.11-36.85-36.3-73.62c-7.51-15.36-7.51-15.2,9.2-15.2,4,0,6,1.35,7.51,4.9,6.42,15.28,15.11,29.46,20.09,45.33.34,1.1.76,2.28,2,2.28,1.6-.08,1.69-1.69,2.28-2.87,7.09-15.7,14.27-31.32,21.44-47,.84-1.86.84-5,3.63-4.9,2.28.08,2.45,2.87,3.21,4.56,7.09,16.12,15.53,31.66,21.78,48.2,1.35,2.11,3.29,4.14,4.39.34C335.71,576.11,339.34,570.79,341.2,564.71Z"/><path class="cls-1" d="M438.2,563.61c3.12-5.15-.51-8.78-3.29-11.9-11-12.75-34.19-9.62-41.62,5.49a39.32,39.32,0,0,0-1.1,32.76c6.92,17.64,30.65,21,44.66,6.25,3.55-3.71,5.57-4.31,8.44,0,.08.17.34.34.42.51,10.47,10.64,10.72,11.65-2.62,19.59-17.48,10.47-36,11-53.61.84S367,590,368.38,571c1.44-19.42,10.89-33.77,29.38-41.28,21.78-8.95,45.76-.93,58.84,19.5a54.46,54.46,0,0,1,5.4,23.64c0,4.31-1.69,6.08-6.5,5.74a271.48,271.48,0,0,0-37.06.08c-8,.68-5.74-4.9-6.5-8.53-1-4.39,1.27-6.5,5.83-6.42C424.52,563.61,431.36,563.61,438.2,563.61Z"/><path class="cls-1" d="M202.07,529a50.58,50.58,0,0,1,22.2,80.12c-2.36,2.87-2.53,4.47.17,7,5.07,4.81,9.88,10,14.77,15,1,1.1,3.12,1.94,1,3.8-11.31,1.69-20.43-1.27-27.1-11.31-3-4.56-9.46-7.51-10.81-12.24-1.69-5.74,6.5-7.18,9.62-11.4,10-13.68,10.38-32.33.08-45.67a35.11,35.11,0,0,0-42.21-11c-14.86,6.58-23.38,23.13-20.77,40,2.53,16.29,15.79,28.45,32.59,30,1.35.08,2.79.51,4,.08,8.19-2.87,11.31,4.05,15.53,8.27,3,3-.34,3.55-2.36,4.05-20.51,5.23-38.83,1-53.27-14.69-27.52-30-10.81-72,22.37-83A56.46,56.46,0,0,1,190,525.28C194,526.64,198.27,527,202.07,529Z"/><path class="cls-1" d="M130.06,544.11c-5.07,8.95-9.71,18.15-15.53,26.68-3.88,5.74-2.45,9.62.93,14.69a152.62,152.62,0,0,1,13.76,26.34c-8.44-4.9-17-9.79-25.33-14.77-8.53-5.07-17.05-10.22-25.5-15.45-3.8-2.36-6-5.07-.68-8.19q25.58-15.2,51.08-30.31A4.78,4.78,0,0,1,130.06,544.11Z"/><path class="cls-1" d="M559.85,543.86c16.55,9.62,33.09,19.33,49.64,29,3.46,2,6.08,4.73,1.1,7.77C593.37,591,576,601.35,557.74,610.8c4.73-8.27,9.12-16.72,14.27-24.74,3.71-5.66,5.23-10.38.68-16.63-5.32-7.26-9.37-15.45-13.93-23.22C558.08,545.12,557.49,543.86,559.85,543.86Z"/></g></g></svg>